# xmcd
#
# Track frame offsets: 
#        150
#        15473
#        29645
#        43918
#        56543
#        70405
#        82917
#        96547
#        108570
#        121706
#        133440
#        146909
#        159914
#        172693
#        186082
#        201041
#        213915
#        226083
#        239641
#        254378
#        266598
#        279790
#        290996
#        303930
#        316134
#
# Disc length: 4378 seconds
#
# Revision: 0
# Processed by: cddbd v1.5.1PL0 Copyright (c) Steve Scherf et al.
# Submitted via: ExactAudioCopy v0.95a5
#
DISCID=6d111819
DTITLE=Various Artist - Maverick Country CD 2- Are You Sure Hank Done It This
DTITLE=Way?
DYEAR=2004
DGENRE=Country
TTITLE0=Jimmie Rodgers - T for Texas
TTITLE1=Deford Bailey - Muscle shoals blues
TTITLE2=The Carter Family - Wildwood flower
TTITLE3=Emmett Miller and His Georgia Crackers - Lovesick blues
TTITLE4=Charlie Poole and North Carolina Ramblers - If the river was whi
TTITLE4=skey
TTITLE5=Jimmie Davis - The keyhole in the door
TTITLE6=Milton Brown and His Musical Brownies - My Mary
TTITLE7=The Blue Sky Boys - Are you from Dixie
TTITLE8=The Rouse Brothers - Orange blossom special
TTITLE9=Ernest Tubb - Walking the floor over you
TTITLE10=Merle Travis - Divorce me c.o.d.
TTITLE11=Roy Acuff - (Our own) Jole Blon
TTITLE12=Carson Robison - Life gets tee-jus, don't it
TTITLE13=Pee Wee King and His Golden West Cowboys - Tennessee waltz
TTITLE14=Arthur Smith and His Crackerjacks - Guitar boogie
TTITLE15=The Delmore Brothers - Blues stay away from me
TTITLE16=Leon Payne - I love you because
TTITLE17=Kenny Roberts - I never see Maggie alone
TTITLE18=The Stanley Brothers - The white dove
TTITLE19=Leon McAuliffe and His Western Swing Band - Take it away Leon
TTITLE20=Lefty Frizzell - If you've got the money, I've got the time
TTITLE21=Porter Wagoner - Setting the woods on fire
TTITLE22=Hank Williams - Jambalaya
TTITLE23=Johnny Cash - Folsom prison blues
TTITLE24=Patsy Cline - Walking after midnight
EXTD=
EXTT0=
EXTT1=
EXTT2=
EXTT3=
EXTT4=
EXTT5=
EXTT6=
EXTT7=
EXTT8=
EXTT9=
EXTT10=
EXTT11=
EXTT12=
EXTT13=
EXTT14=
EXTT15=
EXTT16=
EXTT17=
EXTT18=
EXTT19=
EXTT20=
EXTT21=
EXTT22=
EXTT23=
EXTT24=
PLAYORDER=
